<?xml version="1.0" ?><svg data-name="Layer 1" id="Layer_1" viewBox="0 0 32 32" xmlns="http://www.w3.org/2000/svg"><defs><style>.cls-1{fill:#7dccfc;}</style></defs><title/><path class="cls-1" d="M31,12.88c-.19-3-1.93-4.74-4.91-4.87H11l4.06-1a.53.53,0,0,0,.41-.74A6,6,0,0,0,14.32,4.5,5.1,5.1,0,0,0,10.26,3H6C3,3,1.13,4.88,1,8V24.08A4.78,4.78,0,0,0,5.87,29H26.13A4.86,4.86,0,0,0,31,24V13S31,12.92,31,12.88Zm-8.58,4-5.55,5.55a2,2,0,0,1-2.83,0l-3.57-3.57A2,2,0,0,1,13.29,16l2.15,2.15L19.59,14a2,2,0,0,1,2.83,2.83Z"/></svg>